<?xml version="1.0" encoding="utf-8"?>
<!-- Generator: Adobe Illustrator 22.1.0, SVG Export Plug-In . SVG Version: 6.00 Build 0)  -->
<svg version="1.1" id="Layer_1" xmlns="http://www.w3.org/2000/svg" xmlns:xlink="http://www.w3.org/1999/xlink" x="0px" y="0px"
	 viewBox="0 0 612 792" style="enable-background:new 0 0 612 792;" xml:space="preserve">
<style type="text/css">
	.st0{fill:#FFFFFF;}
	.st1{fill:url(#SVGID_1_);}
</style>
<path class="st0" d="M435.7,15.2L598.5,189c19.7,21,18.6,54.1-2.4,73.8L311.4,529.4c-21,19.7-54.1,18.6-73.8-2.4L74.8,353.2
	c-19.7-21-18.6-54.1,2.4-73.8L362,12.7C383-7,416-5.9,435.7,15.2z"/>
<linearGradient id="SVGID_1_" gradientUnits="userSpaceOnUse" x1="353.6668" y1="-75.2059" x2="706.6811" y2="277.8084">
	<stop  offset="0" style="stop-color:#D55FA4"/>
	<stop  offset="1" style="stop-color:#7A5FA9"/>
</linearGradient>
<path class="st1" d="M753.7,230.7l-109,102.1c-38.9,36.5-100.1,34.5-136.5-4.5l-206-219.9c-36.5-38.9-34.5-100.1,4.5-136.5
	l109-102.1c38.9-36.5,100.1-34.5,136.5,4.5l206,219.9C794.6,133.1,792.6,194.3,753.7,230.7z"/>
</svg>
